<svg width="26" height="25" viewBox="0 0 26 25" fill="none" xmlns="http://www.w3.org/2000/svg">
<path d="M24.125 6.40333V3.45833C24.125 2.0375 22.9625 0.875 21.5417 0.875H3.45833C2.77319 0.875 2.11611 1.14717 1.63164 1.63164C1.14717 2.11611 0.875 2.77319 0.875 3.45833V21.5417C0.875 22.2268 1.14717 22.8839 1.63164 23.3684C2.11611 23.8528 2.77319 24.125 3.45833 24.125H21.5417C22.9625 24.125 24.125 22.9625 24.125 21.5417V18.5967C24.5154 18.3713 24.8401 18.0476 25.0667 17.6578C25.2933 17.2681 25.4139 16.8258 25.4167 16.375V8.625C25.4139 8.17417 25.2933 7.73191 25.0667 7.34216C24.8401 6.95241 24.5154 6.62874 24.125 6.40333ZM22.8333 8.625V16.375H13.7917V8.625H22.8333ZM3.45833 21.5417V3.45833H21.5417V6.04167H13.7917C12.3708 6.04167 11.2083 7.20417 11.2083 8.625V16.375C11.2083 17.7958 12.3708 18.9583 13.7917 18.9583H21.5417V21.5417H3.45833Z" fill="#0D2565"/>
</svg>
