<svg width="16" height="24" viewBox="0 0 16 24" fill="none" xmlns="http://www.w3.org/2000/svg">
<path d="M14.892 0.671901V0.669421C14.466 0.241178 13.887 0.000247934 13.283 0H2.71353C1.45818 0.00409091 0.441591 1.02068 0.4375 2.27603V21.7215C0.437748 22.3255 0.678678 22.9046 1.10692 23.3306C1.53231 23.7582 2.11037 23.9991 2.71353 24H13.2854C13.8886 23.9991 14.4667 23.7582 14.892 23.3306C15.3197 22.9052 15.5605 22.3271 15.5615 21.724V2.27851C15.5605 1.67535 15.3197 1.09729 14.892 0.671901ZM7.99948 22.4554C7.65988 22.4554 7.38461 22.1801 7.38461 21.8405C7.38461 21.5009 7.65988 21.2256 7.99948 21.2256C8.33909 21.2256 8.61436 21.5009 8.61436 21.8405C8.61436 22.1801 8.33909 22.4554 7.99948 22.4554ZM13.754 18.595C13.754 19.4166 13.088 20.0826 12.2664 20.0826H3.73006C2.90847 20.0826 2.24246 19.4166 2.24246 18.595V4.10331C2.24246 3.28171 2.90847 2.6157 3.73006 2.6157H12.2689C13.0905 2.6157 13.7565 3.28171 13.7565 4.10331L13.754 18.595Z" fill="white"/>
</svg>
