<svg width="32" height="32" viewBox="0 0 32 32" fill="none" xmlns="http://www.w3.org/2000/svg">
<circle cx="16" cy="16" r="15.5" fill="white" stroke="#C4C4C4"/>
<path d="M23 14.9998H11.14L14.77 10.6398C14.9397 10.4356 15.0214 10.1723 14.997 9.90786C14.9726 9.64344 14.8442 9.39953 14.64 9.22979C14.4358 9.06005 14.1725 8.97839 13.9081 9.00277C13.6436 9.02715 13.3997 9.15557 13.23 9.35979L8.23 15.3598C8.19636 15.4075 8.16628 15.4576 8.14 15.5098C8.14 15.5598 8.14 15.5898 8.07 15.6398C8.02467 15.7544 8.00094 15.8765 8 15.9998C8.00094 16.1231 8.02467 16.2451 8.07 16.3598C8.07 16.4098 8.07 16.4398 8.14 16.4898C8.16628 16.5419 8.19636 16.5921 8.23 16.6398L13.23 22.6398C13.324 22.7527 13.4418 22.8435 13.5748 22.9057C13.7079 22.9679 13.8531 23 14 22.9998C14.2337 23.0002 14.4601 22.9189 14.64 22.7698C14.7413 22.6858 14.825 22.5827 14.8863 22.4664C14.9477 22.35 14.9855 22.2227 14.9975 22.0918C15.0096 21.9608 14.9957 21.8287 14.9567 21.7031C14.9176 21.5775 14.8542 21.4608 14.77 21.3598L11.14 16.9998H23C23.2652 16.9998 23.5196 16.8944 23.7071 16.7069C23.8946 16.5194 24 16.265 24 15.9998C24 15.7346 23.8946 15.4802 23.7071 15.2927C23.5196 15.1051 23.2652 14.9998 23 14.9998Z" fill="#C4C4C4"/>
</svg>
