<svg width="20" height="24" viewBox="0 0 20 24" fill="none" xmlns="http://www.w3.org/2000/svg">
<path d="M18.5374 0.616601C18.1725 0.448509 17.7426 0.513919 17.4442 0.78282L15.8697 2.17697C15.8269 2.21509 15.7622 2.21486 15.7196 2.17651L13.5773 0.260392C13.1898 -0.0867972 12.6032 -0.0867972 12.2157 0.260392L10.0753 2.17475C10.0323 2.21322 9.96719 2.21322 9.92413 2.17475L7.78347 0.260392C7.396 -0.0867405 6.80941 -0.0867405 6.42194 0.260392L4.2793 2.17651C4.23641 2.21486 4.17163 2.21503 4.12851 2.17691L2.55255 0.78282C2.13444 0.41101 1.49407 0.448509 1.12226 0.866611C0.955534 1.0541 0.864312 1.2968 0.866241 1.54766V22.4524C0.862497 23.0128 1.31373 23.4701 1.87411 23.4738C2.12514 23.4755 2.36783 23.3841 2.55538 23.2172L4.12993 21.8231C4.17276 21.785 4.23738 21.7852 4.27998 21.8235L6.42234 23.7397C6.80981 24.0869 7.3964 24.0869 7.78387 23.7397L9.92452 21.8253C9.96758 21.7868 10.0327 21.7868 10.0757 21.8253L12.2164 23.7396C12.6039 24.0866 13.1904 24.0866 13.5779 23.7396L15.7207 21.8235C15.7635 21.7851 15.8283 21.785 15.8714 21.8231L17.4474 23.2172C17.8657 23.5888 18.506 23.551 18.8776 23.1328C19.0441 22.9454 19.1352 22.703 19.1334 22.4524V1.54766C19.1387 1.14606 18.9043 0.77987 18.5374 0.616601ZM4.62218 8.14237H10.2717C10.5223 8.14237 10.7256 8.34558 10.7256 8.59622C10.7256 8.84685 10.5223 9.05006 10.2717 9.05006H4.62218C4.37154 9.05006 4.16834 8.84685 4.16834 8.59622C4.16834 8.34558 4.37154 8.14237 4.62218 8.14237ZM15.3774 15.8577H4.62218C4.37154 15.8577 4.16834 15.6545 4.16834 15.4038C4.16834 15.1532 4.37154 14.95 4.62218 14.95H15.3774C15.6281 14.95 15.8313 15.1532 15.8313 15.4038C15.8313 15.6545 15.6281 15.8577 15.3774 15.8577ZM15.3774 12.4539H4.62218C4.37154 12.4539 4.16834 12.2507 4.16834 12C4.16834 11.7494 4.37154 11.5462 4.62218 11.5462H15.3774C15.6281 11.5462 15.8313 11.7494 15.8313 12C15.8313 12.2507 15.6281 12.4539 15.3774 12.4539Z" fill="white"/>
</svg>
