<svg width="24" height="24" viewBox="0 0 24 24" fill="none" xmlns="http://www.w3.org/2000/svg">
<g clip-path="url(#clip0_2318_27691)">
<path d="M23.5 10H0.500016C0.200016 10 0 10.2 0 10.5V17.5C0 18.9 1.10002 20 2.49998 20H21.5C22.9 20 24 18.9 24 17.5V10.5C24 10.2 23.8 10 23.5 10ZM3.50002 14H7.5C7.8 14 8.00002 14.2 8.00002 14.5C8.00002 14.8 7.8 15.0001 7.5 15.0001H3.50002C3.20002 15 3 14.8 3 14.5C3 14.2 3.20002 14 3.50002 14ZM10.5 17H3.50002C3.20002 17 3 16.8 3 16.5C3 16.2 3.20002 16 3.50002 16H10.5C10.8 16 11 16.2 11 16.5C11 16.8 10.8 17 10.5 17ZM19 17C18.6 17 18.3 16.9 18 16.7C17.7 16.9 17.4 17 17 17C15.9 17 15 16.1 15 15C15 13.9 15.9 13 17 13C17.4 13 17.7 13.1 18 13.3C18.3 13.1 18.6 13 19 13C20.1 13 21 13.9 21 15C21 16.1 20.1 17 19 17Z" fill="white"/>
<path d="M21.5 4H2.49998C1.10002 4 0 5.10001 0 6.50001V7.49998C0 7.79998 0.200016 7.99999 0.500016 7.99999H23.5C23.8 7.99999 24 7.79998 24 7.49998V6.50001C24 5.10001 22.9 4 21.5 4Z" fill="white"/>
</g>
<defs>
<clipPath id="clip0_2318_27691">
<rect width="24" height="24" fill="white"/>
</clipPath>
</defs>
</svg>
