<svg width="12" height="13" viewBox="0 0 12 13" fill="none" xmlns="http://www.w3.org/2000/svg">
<path fill-rule="evenodd" clip-rule="evenodd" d="M0.412698 12.2782H11.5556V11.4528H0.825397V0.722656H0V11.8655L0.412698 12.2782ZM1.65079 10.2147V3.61155L2.06349 3.19885H3.71429L4.12698 3.61155V10.2147L3.71429 10.6274H2.06349L1.65079 10.2147ZM3.30159 9.80202V4.02424H2.47619V9.80202H3.30159ZM8.25397 1.96075V10.2147L8.66667 10.6274H10.3175L10.7302 10.2147V1.96075L10.3175 1.54805H8.66667L8.25397 1.96075ZM9.90476 2.37345V9.80202H9.07936V2.37345H9.90476ZM4.95238 10.2147V5.26234L5.36508 4.84964H7.01587L7.42857 5.26234V10.2147L7.01587 10.6274H5.36508L4.95238 10.2147ZM6.60317 9.80202V5.67504H5.77778V9.80202H6.60317Z" fill="#0D2565"/>
</svg>
