<svg width="28" height="23" viewBox="0 0 28 23" fill="none" xmlns="http://www.w3.org/2000/svg">
<path d="M24.2667 0H0V18.6667H24.2667V0ZM22.4 16.8H1.86667V1.86667H22.4V16.8Z" fill="#0D2565"/>
<path d="M26.1337 4.66699V20.5337H4.66699V22.4003H28.0003V4.66699H26.1337Z" fill="#0D2565"/>
<path d="M12.1336 13.9105C14.4494 13.9105 16.3336 11.8608 16.3336 9.34148C16.3336 6.82212 14.4494 4.77246 12.1336 4.77246C9.81776 4.77246 7.93359 6.82206 7.93359 9.34148C7.93359 11.8609 9.81776 13.9105 12.1336 13.9105ZM12.1336 6.63913C13.4202 6.63913 14.4669 7.85141 14.4669 9.34148C14.4669 10.8315 13.4202 12.0438 12.1336 12.0438C10.847 12.0438 9.80026 10.8315 9.80026 9.34148C9.80026 7.85141 10.847 6.63913 12.1336 6.63913Z" fill="#0D2565"/>
<path d="M3.7334 4.2002H5.60006V14.4669H3.7334V4.2002Z" fill="#0D2565"/>
<path d="M18.667 4.2002H20.5337V14.4669H18.667V4.2002Z" fill="#0D2565"/>
</svg>
