<svg width="13" height="13" viewBox="0 0 13 13" fill="none" xmlns="http://www.w3.org/2000/svg">
<path d="M5.28125 6.09375C5.88453 6.09375 6.31881 6.70191 6.77869 7.34541C7.31169 8.09169 7.91619 8.9375 8.9375 8.9375C11.2409 8.9375 12.0981 4.55406 12.1875 4.0625L11.388 3.91706C11.1922 4.98956 10.3163 8.125 8.9375 8.125C8.33422 8.125 7.89994 7.51684 7.44006 6.87334C6.90706 6.12706 6.30256 5.28125 5.28125 5.28125C3.58069 5.28125 2.25672 8.28912 1.625 10.0596V0.8125H0.8125V11.375C0.812715 11.5904 0.898387 11.797 1.05071 11.9493C1.20304 12.1016 1.40958 12.1873 1.625 12.1875H12.1875V11.375H2.04913C2.66256 9.28566 4.04787 6.09375 5.28125 6.09375Z" fill="black" fill-opacity="0.43"/>
</svg>
