<svg width="35" height="32" viewBox="0 0 35 32" fill="none" xmlns="http://www.w3.org/2000/svg">
<g clip-path="url(#clip0_1919_24276)">
<path d="M20.5219 5.98899e-05C20.0853 -0.00356734 19.6656 0.157705 19.3608 0.446489C18.2672 1.37506 16.5845 1.37506 15.4906 0.446489C15.1831 0.160774 14.7646 5.98899e-05 14.3283 5.98899e-05C13.892 5.98899e-05 13.4735 0.160774 13.166 0.446489C12.8694 0.68756 12.5284 0.877571 12.1592 1.00759L14.7093 5.71435H20.1361L22.6862 1.00704C22.3176 0.877292 21.9771 0.687281 21.6811 0.446489C21.377 0.157705 20.9582 -0.00328832 20.5219 5.98899e-05Z" fill="#0D2565"/>
<path d="M30.4268 19.9997C30.4196 14.0064 25.1564 9.14927 18.6614 9.14258H16.1844C9.6894 9.14927 4.4262 14.0064 4.41895 19.9997V30.2854C4.41895 31.2321 5.25074 31.9997 6.27665 31.9997H28.5691C29.595 31.9997 30.4268 31.2321 30.4268 30.2854V19.9997ZM17.4229 26.4614C12.635 26.4614 11.4986 25.5608 11.4986 21.1426C11.4986 16.7243 12.635 16.6152 17.4229 16.6152C22.2108 16.6152 22.8353 16.7243 22.8353 21.1426C22.8302 25.5589 22.2087 26.4566 17.4229 26.4614Z" fill="#0D2565"/>
<path d="M21.1388 7.42885C21.1388 7.11328 20.8616 6.85742 20.5196 6.85742H14.3272C13.9853 6.85742 13.708 7.11328 13.708 7.42885C13.708 7.74442 13.9853 8.00028 14.3272 8.00028H20.5196C20.8616 8.00028 21.1388 7.74442 21.1388 7.42885Z" fill="#18AA00"/>
<path d="M30.6133 7.71387C29.9348 7.83078 29.234 7.69071 28.6689 7.32548C28.3529 7.10143 27.9495 7.01019 27.5571 7.07436C27.1649 7.13854 26.8199 7.35198 26.6068 7.66253C26.2104 8.18374 25.6032 8.53614 24.9223 8.63965C24.7611 8.66811 24.5976 8.68346 24.4331 8.68541C23.9139 8.67285 23.4093 8.52442 22.9781 8.25684C22.7662 8.12179 22.5255 8.03028 22.2721 7.98814C22.3417 7.80846 22.377 7.619 22.3773 7.42816C22.3752 7.13016 22.2924 6.83747 22.1357 6.57687C22.4974 6.45996 22.8811 6.41309 23.2629 6.43959C23.6578 6.48647 24.0563 6.37821 24.3611 6.1416C24.6656 5.90472 24.8491 5.56125 24.8667 5.19406C24.9332 4.56125 25.267 3.97838 25.7955 3.57101C26.3213 3.15918 27.0032 2.95773 27.6904 3.01102C28.0844 3.05315 28.4799 2.94601 28.7865 2.71387L29.5853 3.58831C29.0634 4.00712 28.3792 4.21136 27.6904 4.15388C27.2952 4.10226 26.8952 4.20801 26.5892 4.44434C26.2835 4.68094 26.1006 5.02609 26.0867 5.39384C26.0214 6.02693 25.6876 6.61035 25.1578 7.01688C24.8739 7.24903 24.5344 7.4156 24.167 7.50237C24.3427 7.54646 24.5271 7.55232 24.7058 7.51967C25.0983 7.45382 25.4436 7.24066 25.6595 6.93095C26.4903 5.85226 28.1053 5.58803 29.2881 6.33692C29.605 6.56125 30.0092 6.65221 30.4026 6.58831L30.6133 7.71387Z" fill="#18AA00"/>
<path d="M18.193 19.648V23.2305H17.9505C17.9122 23.2305 17.8797 23.2238 17.853 23.2105C17.828 23.1971 17.803 23.1746 17.778 23.143L15.7055 20.443C15.7088 20.4846 15.7113 20.5255 15.713 20.5655C15.7147 20.6055 15.7155 20.643 15.7155 20.678V23.2305H15.2905V19.648H15.5405C15.5622 19.648 15.5805 19.6496 15.5955 19.653C15.6105 19.6546 15.6238 19.6588 15.6355 19.6655C15.6472 19.6705 15.6588 19.6788 15.6705 19.6905C15.6822 19.7005 15.6947 19.7138 15.708 19.7305L17.7805 22.428C17.7772 22.3846 17.7738 22.343 17.7705 22.303C17.7688 22.2613 17.768 22.2221 17.768 22.1855V19.648H18.193Z" fill="#0D2565"/>
<line x1="14.833" y1="20.7238" x2="20.168" y2="20.7238" stroke="#18AA00" stroke-width="0.4"/>
<line x1="14.833" y1="22.3145" x2="20.168" y2="22.3145" stroke="#18AA00" stroke-width="0.5"/>
</g>
<defs>
<clipPath id="clip0_1919_24276">
<rect width="34.6772" height="32" fill="white" transform="translate(0.162109)"/>
</clipPath>
</defs>
</svg>
