<svg width="36" height="24" viewBox="0 0 36 24" fill="none" xmlns="http://www.w3.org/2000/svg">
<path d="M22.3496 2C22.9244 2 23.4757 2.21071 23.8822 2.58579C24.2886 2.96086 24.517 3.46957 24.517 4V20C24.517 20.5304 24.2886 21.0391 23.8822 21.4142C23.4757 21.7893 22.9244 22 22.3496 22H13.6803C13.1055 22 12.5543 21.7893 12.1478 21.4142C11.7414 21.0391 11.513 20.5304 11.513 20V4C11.513 3.46957 11.7414 2.96086 12.1478 2.58579C12.5543 2.21071 13.1055 2 13.6803 2H22.3496ZM13.6803 0C12.5307 0 11.4282 0.421427 10.6153 1.17157C9.80239 1.92172 9.3457 2.93913 9.3457 4V20C9.3457 21.0609 9.80239 22.0783 10.6153 22.8284C11.4282 23.5786 12.5307 24 13.6803 24H22.3496C23.4993 24 24.6018 23.5786 25.4147 22.8284C26.2276 22.0783 26.6843 21.0609 26.6843 20V4C26.6843 2.93913 26.2276 1.92172 25.4147 1.17157C24.6018 0.421427 23.4993 0 22.3496 0H13.6803Z" fill="#0D2565"/>
<path d="M18.0154 20.0003C18.5902 20.0003 19.1414 19.7896 19.5479 19.4145C19.9543 19.0395 20.1827 18.5308 20.1827 18.0003C20.1827 17.4699 19.9543 16.9612 19.5479 16.5861C19.1414 16.211 18.5902 16.0003 18.0154 16.0003C17.4405 16.0003 16.8893 16.211 16.4828 16.5861C16.0764 16.9612 15.848 17.4699 15.848 18.0003C15.848 18.5308 16.0764 19.0395 16.4828 19.4145C16.8893 19.7896 17.4405 20.0003 18.0154 20.0003ZM4.14232 4.11632C4.26815 4.17776 4.37963 4.26147 4.47038 4.36267C4.56114 4.46387 4.6294 4.58059 4.67126 4.70614C4.71313 4.83169 4.72777 4.96363 4.71437 5.09441C4.70096 5.22518 4.65976 5.35224 4.59313 5.46832C3.44064 7.48112 2.84013 9.72384 2.8441 12.0003C2.8441 14.3603 3.47696 16.5843 4.59313 18.5323C4.72763 18.7668 4.7557 19.0409 4.67116 19.2945C4.58662 19.548 4.39639 19.7602 4.14232 19.8843C3.88826 20.0084 3.59117 20.0343 3.31641 19.9563C3.04164 19.8783 2.81172 19.7028 2.67721 19.4683C1.35953 17.1671 0.67271 14.6031 0.676776 12.0003C0.676776 9.30632 1.40066 6.76232 2.67721 4.53232C2.74379 4.41621 2.8345 4.31334 2.94417 4.22959C3.05384 4.14584 3.18032 4.08285 3.31637 4.04422C3.45243 4.00559 3.5954 3.99207 3.73712 4.00444C3.87884 4.01682 4.01653 4.05483 4.14232 4.11632ZM31.8884 4.11632C32.0142 4.05483 32.1519 4.01682 32.2936 4.00444C32.4353 3.99207 32.5783 4.00559 32.7143 4.04422C32.8504 4.08285 32.9769 4.14584 33.0865 4.22959C33.1962 4.31334 33.2869 4.41621 33.3535 4.53232C34.6713 6.83353 35.3581 9.39758 35.3539 12.0003C35.3581 14.6031 34.6713 17.1671 33.3535 19.4683C33.219 19.7028 32.9891 19.8783 32.7143 19.9563C32.4396 20.0343 32.1425 20.0084 31.8884 19.8843C31.6343 19.7602 31.4441 19.548 31.3596 19.2945C31.275 19.0409 31.3031 18.7668 31.4376 18.5323C32.5901 16.5195 33.1906 14.2768 33.1866 12.0003C33.1866 9.64033 32.5538 7.41632 31.4376 5.46832C31.371 5.35224 31.3298 5.22518 31.3164 5.09441C31.3029 4.96363 31.3176 4.83169 31.3595 4.70614C31.4013 4.58059 31.4696 4.46387 31.5603 4.36267C31.6511 4.26147 31.7626 4.17776 31.8884 4.11632ZM7.30228 7.06832C7.43496 7.11606 7.55615 7.18747 7.6589 7.27846C7.76166 7.36945 7.84397 7.47823 7.90114 7.59859C7.9583 7.71896 7.9892 7.84854 7.99206 7.97993C7.99492 8.11132 7.96968 8.24194 7.9178 8.36433C7.42785 9.52318 7.17719 10.7564 7.17874 12.0003C7.17874 13.2843 7.43882 14.5103 7.91563 15.6363C7.97611 15.7599 8.00872 15.8936 8.01146 16.0292C8.0142 16.1648 7.98702 16.2995 7.93158 16.4251C7.87614 16.5507 7.7936 16.6646 7.68897 16.7598C7.58434 16.855 7.45981 16.9296 7.32295 16.9791C7.1861 17.0285 7.03977 17.0517 6.89289 17.0473C6.746 17.0429 6.60161 17.011 6.46851 16.9535C6.33541 16.896 6.21638 16.8141 6.11865 16.7128C6.02092 16.6115 5.94654 16.493 5.90002 16.3643C5.31152 14.9735 5.01014 13.4934 5.01142 12.0003C5.01142 10.4623 5.32568 8.99032 5.90002 7.63632C6.00453 7.38953 6.21089 7.1911 6.47381 7.08461C6.73672 6.97811 7.03469 6.97225 7.30228 7.06832ZM28.7284 7.06832C28.8611 7.02045 29.0026 6.99716 29.145 6.9998C29.2874 7.00244 29.4278 7.03095 29.5582 7.0837C29.6887 7.13645 29.8065 7.21241 29.9051 7.30724C30.0037 7.40206 30.0811 7.51389 30.1329 7.63632C30.705 8.99032 31.0193 10.4623 31.0193 12.0003C31.0193 13.5383 30.705 15.0103 30.1307 16.3643C30.0164 16.598 29.8091 16.7822 29.5518 16.8789C29.2945 16.9756 29.0068 16.9775 28.7481 16.884C28.4894 16.7906 28.2794 16.609 28.1616 16.3768C28.0438 16.1446 28.0272 15.8795 28.1151 15.6363C28.5919 14.5103 28.852 13.2843 28.852 12.0003C28.852 10.7163 28.5919 9.49033 28.1151 8.36433C28.0102 8.11741 28.0159 7.84215 28.1309 7.5991C28.2459 7.35606 28.4609 7.16513 28.7284 7.06832Z" fill="#18AA00"/>
</svg>
