<svg width="33" height="31" viewBox="0 0 33 31" fill="none" xmlns="http://www.w3.org/2000/svg">
<path d="M13.6502 6.0998C12.6689 6.0998 11.7278 6.48962 11.0339 7.18351C10.34 7.87739 9.95019 8.8185 9.95019 9.7998C9.95019 10.7811 10.34 11.7222 11.0339 12.4161C11.7278 13.11 12.6689 13.4998 13.6502 13.4998C14.6315 13.4998 15.5726 13.11 16.2665 12.4161C16.9604 11.7222 17.3502 10.7811 17.3502 9.7998C17.3502 8.8185 16.9604 7.87739 16.2665 7.18351C15.5726 6.48962 14.6315 6.0998 13.6502 6.0998ZM11.8002 9.7998C11.8002 9.30915 11.9951 8.8386 12.342 8.49166C12.689 8.14471 13.1595 7.9498 13.6502 7.9498C14.1408 7.9498 14.6114 8.14471 14.9583 8.49166C15.3053 8.8386 15.5002 9.30915 15.5002 9.7998C15.5002 10.2905 15.3053 10.761 14.9583 11.108C14.6114 11.4549 14.1408 11.6498 13.6502 11.6498C13.1595 11.6498 12.689 11.4549 12.342 11.108C11.9951 10.761 11.8002 10.2905 11.8002 9.7998ZM0.700195 3.3248C0.700195 2.58883 0.992561 1.883 1.51297 1.36258C2.03339 0.84217 2.73922 0.549805 3.47519 0.549805H23.8252C24.5612 0.549805 25.267 0.84217 25.7874 1.36258C26.3078 1.883 26.6002 2.58883 26.6002 3.3248V9.7998H24.7502V7.9498H22.9002C21.9189 7.9498 20.9778 7.55998 20.2839 6.8661C19.59 6.17221 19.2002 5.23111 19.2002 4.2498V2.3998H8.10019V4.2498C8.10019 5.23111 7.71037 6.17221 7.01649 6.8661C6.32261 7.55998 5.3815 7.9498 4.40019 7.9498H2.5502V11.6498H4.40019C5.3815 11.6498 6.32261 12.0396 7.01649 12.7335C7.71037 13.4274 8.10019 14.3685 8.10019 15.3498V17.1998H17.3502V19.0498H3.47519C2.73922 19.0498 2.03339 18.7574 1.51297 18.237C0.992561 17.7166 0.700195 17.0108 0.700195 16.2748V3.3248ZM3.47519 2.3998C3.22987 2.3998 2.99459 2.49726 2.82112 2.67073C2.64765 2.8442 2.5502 3.07948 2.5502 3.3248V6.0998H4.40019C4.89085 6.0998 5.3614 5.90489 5.70834 5.55795C6.05528 5.21101 6.25019 4.74046 6.25019 4.2498V2.3998H3.47519ZM23.8252 2.3998H21.0502V4.2498C21.0502 4.74046 21.2451 5.21101 21.592 5.55795C21.939 5.90489 22.4095 6.0998 22.9002 6.0998H24.7502V3.3248C24.7502 3.07948 24.6527 2.8442 24.4793 2.67073C24.3058 2.49726 24.0705 2.3998 23.8252 2.3998ZM3.47519 17.1998H6.25019V15.3498C6.25019 14.8592 6.05528 14.3886 5.70834 14.0417C5.3614 13.6947 4.89085 13.4998 4.40019 13.4998H2.5502V16.2748C2.5502 16.5201 2.64765 16.7554 2.82112 16.9289C2.99459 17.1024 3.22987 17.1998 3.47519 17.1998ZM28.4502 9.7998V4.40705C28.9915 4.59842 29.4601 4.95296 29.7914 5.4218C30.1227 5.89064 30.3005 6.4507 30.3002 7.0248V9.7998H28.4502ZM17.3502 20.8998V22.7498H7.17519C6.60109 22.7501 6.04103 22.5723 5.57219 22.241C5.10335 21.9097 4.74881 21.4411 4.55745 20.8998H17.3502ZM21.9752 11.6498C21.2392 11.6498 20.5334 11.9422 20.013 12.4626C19.4926 12.983 19.2002 13.6888 19.2002 14.4248V27.3748C19.2002 28.1108 19.4926 28.8166 20.013 29.337C20.5334 29.8574 21.2392 30.1498 21.9752 30.1498H29.3752C30.1112 30.1498 30.817 29.8574 31.3374 29.337C31.8578 28.8166 32.1502 28.1108 32.1502 27.3748V14.4248C32.1502 13.6888 31.8578 12.983 31.3374 12.4626C30.817 11.9422 30.1112 11.6498 29.3752 11.6498H21.9752ZM21.9752 19.0498H23.8252C24.0705 19.0498 24.3058 19.1473 24.4793 19.3207C24.6527 19.4942 24.7502 19.7295 24.7502 19.9748C24.7502 20.2201 24.6527 20.4554 24.4793 20.6289C24.3058 20.8023 24.0705 20.8998 23.8252 20.8998H21.9752C21.7299 20.8998 21.4946 20.8023 21.3211 20.6289C21.1476 20.4554 21.0502 20.2201 21.0502 19.9748C21.0502 19.7295 21.1476 19.4942 21.3211 19.3207C21.4946 19.1473 21.7299 19.0498 21.9752 19.0498ZM27.5252 19.0498H29.3752C29.6205 19.0498 29.8558 19.1473 30.0293 19.3207C30.2027 19.4942 30.3002 19.7295 30.3002 19.9748C30.3002 20.2201 30.2027 20.4554 30.0293 20.6289C29.8558 20.8023 29.6205 20.8998 29.3752 20.8998H27.5252C27.2799 20.8998 27.0446 20.8023 26.8711 20.6289C26.6976 20.4554 26.6002 20.2201 26.6002 19.9748C26.6002 19.7295 26.6976 19.4942 26.8711 19.3207C27.0446 19.1473 27.2799 19.0498 27.5252 19.0498ZM21.9752 22.7498H23.8252C24.0705 22.7498 24.3058 22.8473 24.4793 23.0207C24.6527 23.1942 24.7502 23.4295 24.7502 23.6748C24.7502 23.9201 24.6527 24.1554 24.4793 24.3289C24.3058 24.5023 24.0705 24.5998 23.8252 24.5998H21.9752C21.7299 24.5998 21.4946 24.5023 21.3211 24.3289C21.1476 24.1554 21.0502 23.9201 21.0502 23.6748C21.0502 23.4295 21.1476 23.1942 21.3211 23.0207C21.4946 22.8473 21.7299 22.7498 21.9752 22.7498ZM27.5252 22.7498H29.3752C29.6205 22.7498 29.8558 22.8473 30.0293 23.0207C30.2027 23.1942 30.3002 23.4295 30.3002 23.6748C30.3002 23.9201 30.2027 24.1554 30.0293 24.3289C29.8558 24.5023 29.6205 24.5998 29.3752 24.5998H27.5252C27.2799 24.5998 27.0446 24.5023 26.8711 24.3289C26.6976 24.1554 26.6002 23.9201 26.6002 23.6748C26.6002 23.4295 26.6976 23.1942 26.8711 23.0207C27.0446 22.8473 27.2799 22.7498 27.5252 22.7498ZM21.9752 26.4498H23.8252C24.0705 26.4498 24.3058 26.5473 24.4793 26.7207C24.6527 26.8942 24.7502 27.1295 24.7502 27.3748C24.7502 27.6201 24.6527 27.8554 24.4793 28.0289C24.3058 28.2023 24.0705 28.2998 23.8252 28.2998H21.9752C21.7299 28.2998 21.4946 28.2023 21.3211 28.0289C21.1476 27.8554 21.0502 27.6201 21.0502 27.3748C21.0502 27.1295 21.1476 26.8942 21.3211 26.7207C21.4946 26.5473 21.7299 26.4498 21.9752 26.4498ZM27.5252 26.4498H29.3752C29.6205 26.4498 29.8558 26.5473 30.0293 26.7207C30.2027 26.8942 30.3002 27.1295 30.3002 27.3748C30.3002 27.6201 30.2027 27.8554 30.0293 28.0289C29.8558 28.2023 29.6205 28.2998 29.3752 28.2998H27.5252C27.2799 28.2998 27.0446 28.2023 26.8711 28.0289C26.6976 27.8554 26.6002 27.6201 26.6002 27.3748C26.6002 27.1295 26.6976 26.8942 26.8711 26.7207C27.0446 26.5473 27.2799 26.4498 27.5252 26.4498ZM21.0502 14.4248C21.0502 14.1795 21.1476 13.9442 21.3211 13.7707C21.4946 13.5973 21.7299 13.4998 21.9752 13.4998H29.3752C29.6205 13.4998 29.8558 13.5973 30.0293 13.7707C30.2027 13.9442 30.3002 14.1795 30.3002 14.4248V16.2748C30.3002 16.5201 30.2027 16.7554 30.0293 16.9289C29.8558 17.1024 29.6205 17.1998 29.3752 17.1998H21.9752C21.7299 17.1998 21.4946 17.1024 21.3211 16.9289C21.1476 16.7554 21.0502 16.5201 21.0502 16.2748V14.4248Z" fill="#0D2565"/>
</svg>
