<svg width="24" height="24" viewBox="0 0 24 24" fill="none" xmlns="http://www.w3.org/2000/svg">
<g clip-path="url(#clip0_2318_27667)">
<path d="M14.0915 4.49174e-05C13.7893 -0.0026755 13.4989 0.118279 13.288 0.334866C12.531 1.03129 11.3665 1.03129 10.6094 0.334866C10.3966 0.120581 10.1069 4.49174e-05 9.80497 4.49174e-05C9.503 4.49174e-05 9.21338 0.120581 9.00056 0.334866C8.79527 0.51567 8.55922 0.658178 8.30371 0.755695L10.0686 4.28576H13.8245L15.5894 0.755277C15.3343 0.657969 15.0987 0.515461 14.8938 0.334866C14.6833 0.118279 14.3935 -0.00246624 14.0915 4.49174e-05Z" fill="white"/>
<path d="M20.9463 15.0003C20.9413 10.5053 17.2986 6.86244 12.8034 6.85742H11.0891C6.59396 6.86244 2.95131 10.5053 2.94629 15.0003V22.7146C2.94629 23.4246 3.52197 24.0003 4.232 24.0003H19.6606C20.3706 24.0003 20.9463 23.4246 20.9463 22.7146V15.0003ZM11.9463 19.8465C8.6326 19.8465 7.84608 19.1711 7.84608 15.8574C7.84608 12.5437 8.6326 12.4619 11.9463 12.4619C15.26 12.4619 15.6922 12.5437 15.6922 15.8574C15.6887 19.1696 15.2585 19.843 11.9463 19.8465Z" fill="white"/>
<path d="M14.5179 5.57115C14.5179 5.33447 14.326 5.14258 14.0893 5.14258H9.80357C9.56689 5.14258 9.375 5.33447 9.375 5.57115C9.375 5.80783 9.56689 5.99972 9.80357 5.99972H14.0893C14.326 5.99972 14.5179 5.80783 14.5179 5.57115Z" fill="white"/>
<path d="M21.0753 5.78613C20.6058 5.87382 20.1207 5.76877 19.7296 5.49484C19.5109 5.3268 19.2317 5.25837 18.9601 5.3065C18.6887 5.35463 18.4499 5.51472 18.3024 5.74763C18.028 6.13853 17.6078 6.40283 17.1366 6.48047C17.025 6.50182 16.9118 6.51333 16.798 6.51479C16.4387 6.50537 16.0894 6.39405 15.791 6.19336C15.6443 6.09208 15.4777 6.02344 15.3024 5.99184C15.3505 5.85708 15.375 5.71499 15.3752 5.57185C15.3737 5.34836 15.3164 5.12884 15.208 4.93339C15.4583 4.8457 15.7238 4.81055 15.9881 4.83043C16.2614 4.86558 16.5373 4.78439 16.7482 4.60694C16.9589 4.42927 17.0859 4.17167 17.0981 3.89628C17.1441 3.42167 17.3751 2.98452 17.7409 2.67899C18.1048 2.37012 18.5767 2.21903 19.0524 2.259C19.3251 2.2906 19.5988 2.21024 19.811 2.03613L20.3638 2.69196C20.0027 3.00607 19.5291 3.15925 19.0524 3.11614C18.7789 3.07743 18.502 3.15674 18.2903 3.33399C18.0787 3.51144 17.9521 3.7703 17.9425 4.04611C17.8973 4.52093 17.6662 4.9585 17.2996 5.26339C17.1031 5.4375 16.8681 5.56243 16.6138 5.62751C16.7354 5.66058 16.8631 5.66497 16.9867 5.64049C17.2584 5.5911 17.4974 5.43122 17.6468 5.19894C18.2218 4.38993 19.3395 4.19176 20.1581 4.75342C20.3774 4.92167 20.6572 4.98989 20.9295 4.94197L21.0753 5.78613Z" fill="white"/>
<path d="M13.5143 14.3404V17.9229H13.2718C13.2335 17.9229 13.201 17.9162 13.1743 17.9029C13.1493 17.8895 13.1243 17.867 13.0993 17.8354L11.0268 15.1354C11.0301 15.177 11.0326 15.2179 11.0343 15.2579C11.036 15.2979 11.0368 15.3354 11.0368 15.3704V17.9229H10.6118V14.3404H10.8618C10.8835 14.3404 10.9018 14.342 10.9168 14.3454C10.9318 14.347 10.9451 14.3512 10.9568 14.3579C10.9685 14.3629 10.9801 14.3712 10.9918 14.3829C11.0035 14.3929 11.016 14.4062 11.0293 14.4229L13.1018 17.1204C13.0985 17.077 13.0951 17.0354 13.0918 16.9954C13.0901 16.9537 13.0893 16.9145 13.0893 16.8779V14.3404H13.5143Z" fill="white"/>
<line x1="10.1543" y1="15.4914" x2="13.8466" y2="15.4914" stroke="white" stroke-width="0.4"/>
<line x1="10.1543" y1="16.6719" x2="13.8466" y2="16.6719" stroke="white" stroke-width="0.5"/>
</g>
<defs>
<clipPath id="clip0_2318_27667">
<rect width="24" height="24" fill="white"/>
</clipPath>
</defs>
</svg>
