<svg width="36" height="32" viewBox="0 0 36 32" fill="none" xmlns="http://www.w3.org/2000/svg">
<path d="M28.6333 9.3L21.0477 2.3C20.8309 2.1 20.6142 2 20.2891 2H9.45248C8.26045 2 7.28516 2.9 7.28516 4V28C7.28516 29.1 8.26045 30 9.45248 30H26.7911C27.9831 30 28.9584 29.1 28.9584 28V10C28.9584 9.7 28.85 9.5 28.6333 9.3ZM20.2891 4.4L26.3576 10H20.2891V4.4ZM26.7911 28H9.45248V4H18.1218V10C18.1218 11.1 19.0971 12 20.2891 12H26.7911V28Z" fill="#0D2565"/>
<path d="M11.6201 22H24.6241V24H11.6201V22Z" fill="#18AA00"/>
<path d="M11.6201 16H24.6241V18H11.6201V16Z" fill="#18AA00"/>
</svg>
