<svg width="99" height="99" viewBox="0 0 99 99" fill="none" xmlns="http://www.w3.org/2000/svg">
<g clip-path="url(#clip0_2063_28324)">
<path d="M13.8144 56.633C13.8144 30.5685 34.9519 9.43109 61.0164 9.43109C67.2854 9.42839 73.4923 10.6723 79.2756 13.0927C70.8669 6.24172 60.3499 2.50819 49.5037 2.52348C23.4392 2.52348 2.30176 23.6609 2.30176 49.7254C2.30446 68.742 13.711 85.9031 31.2444 93.2667C20.2058 84.3102 13.8 70.8485 13.8144 56.633Z" fill="#D1DBE3"/>
<path d="M49.5039 0.220845C29.4809 0.217247 11.4284 12.2777 3.76623 30.7771C-3.89509 49.2765 0.343009 70.5695 14.5054 84.7238C33.835 104.053 65.1737 104.053 84.5024 84.7238C103.832 65.3951 103.832 34.0564 84.5024 14.7268C75.241 5.41234 62.6391 0.189365 49.5039 0.220845ZM49.5039 94.6247C24.7517 94.6247 4.60449 74.4775 4.60449 49.7253C4.60449 24.9731 24.7517 4.82591 49.5039 4.82591C74.2561 4.82591 94.4033 24.9731 94.4033 49.7253C94.4033 74.4775 74.2561 94.6247 49.5039 94.6247Z" fill="#002082"/>
<path d="M73.0351 34.5065L43.3099 62.9194L27.1229 46.7099C26.2262 45.8132 24.7727 45.8132 23.876 46.7099C22.9801 47.6057 22.9801 49.0592 23.876 49.9559L41.6747 67.7547C42.1065 68.19 42.6965 68.4311 43.3099 68.4221C43.9044 68.4284 44.4765 68.1963 44.8983 67.7781L76.2127 37.8451C77.1212 36.9646 77.1509 35.5165 76.2793 34.6C75.4069 33.6844 73.9597 33.6421 73.0351 34.5065Z" fill="#002082"/>
</g>
<defs>
<clipPath id="clip0_2063_28324">
<rect width="99" height="99" fill="white"/>
</clipPath>
</defs>
</svg>
