<svg width="20" height="22" viewBox="0 0 20 22" fill="none" xmlns="http://www.w3.org/2000/svg">
<path d="M10.5644 5.39844H9.43704C9.33392 5.39844 9.24954 5.48282 9.24954 5.58594V12.0383C9.24954 12.0992 9.27767 12.1555 9.32689 12.1906L13.2011 15.0195C13.2855 15.0805 13.4027 15.0641 13.4636 14.9797L14.1339 14.0656C14.1972 13.9789 14.1784 13.8617 14.0941 13.8031L10.7519 11.3867V5.58594C10.7519 5.48282 10.6675 5.39844 10.5644 5.39844ZM15.716 7.16094L19.3909 8.0586C19.5081 8.08672 19.623 7.99766 19.623 7.87813L19.6417 4.09297C19.6417 3.93594 19.4613 3.84688 19.3394 3.94532L15.6456 6.83047C15.6177 6.85207 15.5965 6.8811 15.5843 6.91424C15.5722 6.94738 15.5696 6.98327 15.577 7.0178C15.5843 7.05232 15.6013 7.08407 15.6258 7.10939C15.6504 7.13471 15.6817 7.15258 15.716 7.16094ZM19.6464 14.218L18.3175 13.7609C18.2712 13.7451 18.2205 13.7479 18.1762 13.769C18.132 13.79 18.0977 13.8275 18.0808 13.8734C18.0363 13.993 17.9894 14.1102 17.9402 14.2273C17.523 15.2141 16.9253 16.1023 16.1613 16.8641C15.4057 17.622 14.5102 18.2261 13.5245 18.643C12.5034 19.0747 11.4058 19.2963 10.2972 19.2945C9.17689 19.2945 8.09173 19.0766 7.06986 18.643C6.08417 18.2261 5.18872 17.622 4.43314 16.8641C3.67142 16.1023 3.07376 15.2141 2.65423 14.2273C2.2249 13.2057 2.00493 12.1082 2.00736 11C2.00736 9.87969 2.22533 8.79219 2.65892 7.77032C3.07611 6.7836 3.67376 5.89532 4.43783 5.1336C5.1934 4.37567 6.08886 3.77154 7.07454 3.35469C8.09173 2.9211 9.17923 2.70313 10.2995 2.70313C11.4199 2.70313 12.505 2.9211 13.5269 3.35469C14.5126 3.77154 15.408 4.37567 16.1636 5.1336C16.4027 5.375 16.6277 5.62578 16.8339 5.89063L18.2355 4.79375C16.3909 2.43594 13.5199 0.919534 10.2949 0.921878C4.67923 0.924221 0.169857 5.48516 0.226107 11.1031C0.282357 16.6227 4.77064 21.0781 10.2995 21.0781C14.6472 21.0781 18.3503 18.3219 19.7613 14.4617C19.7964 14.3633 19.7449 14.2531 19.6464 14.218Z" fill="white"/>
</svg>
